<svg width="32" height="32" viewBox="0 0 32 32" fill="none" xmlns="http://www.w3.org/2000/svg">
<path d="M31.3238 20.6154C29.3414 27.2019 23.2259 32 15.989 32C7.43048 32 0.440454 25.2896 0 16.8466C3.39024 17.2251 6.2319 18.4406 9.21066 19.7147L9.2138 19.7161C12.8227 21.2603 16.555 22.8571 21.3377 22.8571C25.1853 22.8571 28.353 21.8236 31.3238 20.6154Z" fill="#131313"/>
<path d="M31.8236 18.383C28.554 19.7696 25.3672 20.9882 21.3377 20.9882C16.9384 20.9882 13.5439 19.536 9.94993 17.9982C6.90899 16.6971 3.78079 15.3586 0.01061 14.9694C0.144072 12.8713 0.68225 10.883 1.54794 9.08168C4.27938 9.60543 6.69623 10.6392 9.21066 11.7147L9.2138 11.7161C12.8227 13.2603 16.555 14.8571 21.3377 14.8571C25.3113 14.8571 28.5596 13.7548 31.6149 12.4963C31.867 13.6239 32 14.7964 32 16C32 16.8098 31.9398 17.6055 31.8236 18.383Z" fill="#131313"/>
<path d="M15.989 0C10.3253 0 5.34855 2.93865 2.50214 7.3734C5.20643 7.96865 7.60415 8.99452 9.94993 9.99822C13.5439 11.536 16.9384 12.9882 21.3377 12.9882C25.0682 12.9882 28.0763 11.9438 31.0966 10.6885C28.9048 4.46272 22.9685 0 15.989 0Z" fill="#131313"/>
</svg>
